<svg width="75" height="67" viewBox="0 0 75 67" fill="none" xmlns="http://www.w3.org/2000/svg">
<path d="M34.1364 30.15L7.22727 13.4V46.9H40.8636V53.6H7.22727C5.37727 53.6 3.79356 52.944 2.47614 51.6319C1.15871 50.3198 0.5 48.7425 0.5 46.9V6.7C0.5 4.8575 1.15871 3.28021 2.47614 1.96813C3.79356 0.656042 5.37727 0 7.22727 0H61.0455C62.8955 0 64.4792 0.656042 65.7966 1.96813C67.114 3.28021 67.7727 4.8575 67.7727 6.7V23.45H61.0455V13.4L34.1364 30.15ZM34.1364 23.45L61.0455 6.7H7.22727L34.1364 23.45ZM61.0455 67C57.3455 67 54.178 65.6879 51.5432 63.0638C48.9083 60.4396 47.5909 57.285 47.5909 53.6V38.525C47.5909 36.18 48.4038 34.1979 50.0295 32.5788C51.6553 30.9596 53.6455 30.15 56 30.15C58.3545 30.15 60.3447 30.9596 61.9705 32.5788C63.5962 34.1979 64.4091 36.18 64.4091 38.525V53.6H57.6818V38.525C57.6818 38.0783 57.5136 37.6875 57.1773 37.3525C56.8409 37.0175 56.4485 36.85 56 36.85C55.5515 36.85 55.1591 37.0175 54.8227 37.3525C54.4864 37.6875 54.3182 38.0783 54.3182 38.525V53.6C54.3182 55.4425 54.9769 57.0198 56.2943 58.3319C57.6117 59.644 59.1955 60.3 61.0455 60.3C62.8955 60.3 64.4792 59.644 65.7966 58.3319C67.114 57.0198 67.7727 55.4425 67.7727 53.6V40.2H74.5V53.6C74.5 57.285 73.1826 60.4396 70.5477 63.0638C67.9129 65.6879 64.7455 67 61.0455 67ZM7.22727 13.4V6.7V46.9V13.4Z" fill="#32B72A"/>
</svg>
