<svg width="795" height="455" viewBox="0 0 795 455" fill="none" xmlns="http://www.w3.org/2000/svg">
<g clip-path="url(#clip0_9258_19788)">
<path d="M556.272 327.75C501.706 347.51 472.286 415.533 494.201 450.308C518.413 488.71 669.811 482.877 687.183 473.512C704.556 464.149 562.533 434.185 581.913 398.851C603.437 359.63 711.514 359.577 708.572 342.829C705.68 326.352 619.346 304.912 556.272 327.75Z" stroke="#32B72A" stroke-opacity="0.1" stroke-width="5" stroke-miterlimit="10"/>
<path d="M539.189 322.917C475.231 340.137 447.479 422.474 475.673 461.263C507.627 505.198 672.11 488.914 696.525 481.961C717.572 475.977 580.943 435.68 597.279 392.984C615.007 346.596 712.485 339.062 705.204 328.298C697.375 316.761 614.242 302.757 539.189 322.917Z" stroke="#32B72A" stroke-opacity="0.1" stroke-width="5" stroke-miterlimit="10"/>
<path d="M522.108 318.095C448.858 332.721 422.724 429.405 457.144 472.21C496.909 521.719 673.097 494.811 705.867 490.42C729.689 487.191 599.473 437.23 612.626 387.095C626.664 333.625 715.651 317.943 701.835 313.843C691.525 306.578 609.41 300.648 522.108 318.095Z" stroke="#32B72A" stroke-opacity="0.1" stroke-width="5" stroke-miterlimit="10"/>
<path d="M505.024 313.231C422.535 325.373 398.018 436.295 438.666 483.135C486.307 538.112 676.415 508.483 715.259 498.85C739.59 492.811 618.123 438.76 628.025 381.221C638.454 320.669 717.761 297.12 698.517 299.347C684.444 296.689 604.56 298.605 505.024 313.231Z" stroke="#32B72A" stroke-opacity="0.1" stroke-width="5" stroke-miterlimit="10"/>
<path d="M487.938 308.429C396.247 318.116 373.345 443.224 420.085 494.122C475.62 554.61 675.307 514.981 724.548 507.329C752.179 503.023 636.717 440.361 643.335 375.386C650.142 307.751 721.603 279.047 695.094 284.891C678.115 288.625 599.744 296.612 487.938 308.429Z" stroke="#32B72A" stroke-opacity="0.1" stroke-width="5" stroke-miterlimit="10"/>
<path d="M470.875 303.599C369.96 310.885 348.692 450.136 401.557 505.071C465.039 571.058 674.509 509.957 733.908 515.834C764.688 518.858 655.436 441.978 658.702 369.554C662.105 294.86 724.21 257.716 691.728 270.46C671.515 278.339 594.947 294.655 470.875 303.599Z" stroke="#32B72A" stroke-opacity="0.1" stroke-width="5" stroke-miterlimit="10"/>
<path d="M453.794 298.777C343.674 303.663 324.056 456.992 383.012 516.026C454.475 587.493 675.241 514.39 743.233 524.239C776.498 529.06 674.136 443.517 674.033 363.644C673.931 281.847 726.268 236.427 688.343 255.929C664.557 268.167 590.15 292.717 453.794 298.777Z" stroke="#32B72A" stroke-opacity="0.1" stroke-width="5" stroke-miterlimit="10"/>
<path d="M436.709 293.945C317.382 296.464 299.467 463.914 364.48 526.984C443.872 603.929 676.158 518.665 752.571 532.7C788.404 539.276 692.884 445.069 689.395 357.78C685.839 268.921 728.19 215.312 684.971 241.454C657.475 258.073 585.316 290.814 436.709 293.945Z" stroke="#32B72A" stroke-opacity="0.1" stroke-width="5" stroke-miterlimit="10"/>
<path d="M419.627 289.111C291.095 289.273 274.796 470.8 345.951 537.939C433.306 620.362 677.231 522.871 761.914 541.168C800.4 549.488 711.651 446.648 704.743 351.924C697.751 255.983 730.079 194.29 681.604 226.976C650.329 248.039 580.535 288.918 419.627 289.111Z" stroke="#32B72A" stroke-opacity="0.1" stroke-width="5" stroke-miterlimit="10"/>
<path d="M402.543 284.29C264.722 282.137 250.175 477.679 327.423 548.886C422.706 636.777 678.439 526.962 771.254 549.608C812.463 559.661 730.418 448.199 720.09 346.049C709.677 243.025 732 173.292 678.218 212.48C643.166 238.043 575.719 287.046 402.543 284.29Z" stroke="#32B72A" stroke-opacity="0.1" stroke-width="5" stroke-miterlimit="10"/>
<path d="M385.46 279.454C238.486 274.923 225.521 484.554 308.894 559.841C412.206 653.199 679.817 531.039 780.595 558.065C824.578 569.839 749.22 449.757 735.455 340.18C721.621 230.063 733.855 152.344 674.849 198C635.987 228.062 570.887 285.181 385.46 279.454Z" stroke="#32B72A" stroke-opacity="0.1" stroke-width="5" stroke-miterlimit="10"/>
<path d="M368.377 274.623C212.18 267.757 200.968 491.431 290.364 570.798C401.676 669.613 681.126 535.086 789.936 566.492C836.71 580.01 768.005 451.328 750.803 334.282C733.566 217.084 735.745 131.39 671.479 183.493C628.823 218.096 566.055 283.319 368.377 274.623Z" stroke="#32B72A" stroke-opacity="0.1" stroke-width="5" stroke-miterlimit="10"/>
<path d="M351.296 269.801C185.861 260.599 176.367 498.353 271.838 581.745C391.144 686.026 682.575 539.123 799.297 574.975C848.912 590.214 786.825 452.868 766.17 328.438C745.513 204.007 737.634 110.499 668.113 169.006C621.646 208.14 561.225 281.48 351.296 269.801Z" stroke="#32B72A" stroke-opacity="0.1" stroke-width="5" stroke-miterlimit="10"/>
<path d="M334.214 264.971C159.539 253.444 151.763 505.178 253.291 592.703C380.613 702.485 684.089 543.193 808.621 583.436C861.111 600.408 805.626 454.42 781.516 322.574C757.475 191.19 739.541 89.6099 664.726 154.554C614.465 198.198 556.393 279.629 334.214 264.971Z" stroke="#32B72A" stroke-opacity="0.1" stroke-width="5" stroke-miterlimit="10"/>
<path d="M317.126 260.139C133.214 246.286 127.429 511.928 234.81 603.66C370.469 718.694 685.702 547.154 818.01 591.886C873.377 610.602 824.492 455.97 796.911 316.708C769.483 178.233 741.494 68.7087 661.405 140.068C607.281 188.252 551.523 277.8 317.126 260.139Z" stroke="#32B72A" stroke-opacity="0.1" stroke-width="5" stroke-miterlimit="10"/>
<path d="M300.047 255.314C106.894 239.138 102.81 518.802 216.232 614.593C359.853 735.137 687.22 551.092 827.302 600.321C885.578 620.771 843.262 457.497 812.21 310.798C781.413 165.218 743.352 47.7834 657.987 125.535C600.102 178.306 546.677 275.958 300.047 255.314Z" stroke="#32B72A" stroke-opacity="0.1" stroke-width="5" stroke-miterlimit="10"/>
<path d="M282.963 250.481C80.4867 231.991 78.1726 525.69 197.702 625.559C349.287 751.486 688.817 555.159 836.643 608.79C897.896 630.994 862.489 459.035 827.557 304.963C793.782 152.258 745.257 26.9348 654.618 111.101C592.923 168.371 541.809 274.127 282.963 250.481Z" stroke="#32B72A" stroke-opacity="0.1" stroke-width="5" stroke-miterlimit="10"/>
<path d="M265.882 245.649C54.1658 225.081 53.5364 532.579 179.174 636.517C338.722 767.975 690.453 559.162 846.003 617.251C910.098 641.188 881.223 460.584 842.922 299.097C805.678 139.3 747.162 6.0655 651.234 96.6142C585.744 158.437 536.877 272.6 265.882 245.649Z" stroke="#32B72A" stroke-opacity="0.1" stroke-width="5" stroke-miterlimit="10"/>
<path d="M248.797 240.827C27.8409 217.881 28.9298 539.456 160.642 647.473C328.136 784.4 692.099 563.156 855.34 625.711C922.362 651.39 899.97 462.113 858.267 293.231C817.568 126.342 749.084 -14.8146 647.861 82.1381C578.509 148.556 532.024 270.705 248.797 240.827Z" stroke="#32B72A" stroke-opacity="0.1" stroke-width="5" stroke-miterlimit="10"/>
<path d="M231.713 235.995C1.51968 210.68 4.27607 546.344 142.113 658.42C317.57 800.792 693.785 567.161 864.682 634.161C934.648 661.595 918.806 463.696 873.616 287.399C829.376 113.416 750.718 -35.7693 644.493 67.6843C571.177 138.494 527.176 268.801 231.713 235.995Z" stroke="#32B72A" stroke-opacity="0.1" stroke-width="5" stroke-miterlimit="10"/>
<path d="M214.632 231.163C-24.8004 203.448 -20.4106 553.244 123.586 669.376C307.007 817.248 695.472 571.165 874.026 642.577C946.952 671.765 937.473 465.203 888.981 281.458C841.356 100.414 752.777 -56.6066 641.126 53.1647C564.1 128.613 522.362 266.95 214.632 231.163Z" stroke="#32B72A" stroke-opacity="0.1" stroke-width="5" stroke-miterlimit="10"/>
<path d="M637.74 38.689C557.022 118.722 517.461 265.001 197.549 226.341C-51.14 196.281 -44.9976 560.111 105.039 680.333C296.44 833.684 697.156 575.169 883.366 651.068C1033.95 712.461 873.787 -195.373 637.74 38.689Z" stroke="#32B72A" stroke-opacity="0.1" stroke-width="5" stroke-miterlimit="10"/>
</g>
<defs>
<clipPath id="clip0_9258_19788">
<rect width="942" height="730" fill="white"/>
</clipPath>
</defs>
</svg>
