<svg width="324" height="445" viewBox="0 0 324 445" fill="none" xmlns="http://www.w3.org/2000/svg">
<rect width="324" height="445" rx="162" fill="#32B72A"/>
<path d="M96.6687 252.19V255.97H84.6805V264.3H94.0272V268.08H84.6805V280.434H80.0478V252.19H96.6687ZM120.529 274.663H108.704L106.672 280.434H101.836L111.955 252.15H117.319L127.438 280.434H122.561L120.529 274.663ZM119.229 270.884L114.637 257.758L110.004 270.884H119.229ZM149.047 280.434L142.545 269.136H139.01V280.434H134.377V252.19H144.13C146.298 252.19 148.126 252.57 149.616 253.328C151.133 254.087 152.258 255.103 152.989 256.376C153.748 257.649 154.127 259.072 154.127 260.643C154.127 262.485 153.585 264.165 152.502 265.682C151.445 267.172 149.806 268.188 147.584 268.73L154.574 280.434H149.047ZM139.01 265.438H144.13C145.864 265.438 147.164 265.005 148.031 264.138C148.925 263.271 149.372 262.106 149.372 260.643C149.372 259.18 148.939 258.042 148.072 257.229C147.205 256.39 145.891 255.97 144.13 255.97H139.01V265.438ZM192.34 252.19V280.434H187.708V261.09L179.092 280.434H175.882L167.226 261.09V280.434H162.593V252.19H167.592L177.507 274.338L187.382 252.19H192.34ZM205.602 255.929V264.219H215.355V267.998H205.602V276.654H216.574V280.434H200.969V252.15H216.574V255.929H205.602ZM239.49 280.434L232.988 269.136H229.453V280.434H224.82V252.19H234.573C236.74 252.19 238.569 252.57 240.059 253.328C241.576 254.087 242.701 255.103 243.432 256.376C244.191 257.649 244.57 259.072 244.57 260.643C244.57 262.485 244.028 264.165 242.945 265.682C241.888 267.172 240.249 268.188 238.027 268.73L245.017 280.434H239.49ZM229.453 265.438H234.573C236.307 265.438 237.607 265.005 238.474 264.138C239.368 263.271 239.815 262.106 239.815 260.643C239.815 259.18 239.382 258.042 238.515 257.229C237.648 256.39 236.334 255.97 234.573 255.97H229.453V265.438Z" fill="white"/>
<path d="M108.923 336.597C107.027 336.597 105.32 336.272 103.803 335.622C102.286 334.944 101.094 333.996 100.227 332.777C99.3598 331.558 98.9263 330.136 98.9263 328.51H103.884C103.993 329.729 104.467 330.732 105.306 331.517C106.173 332.303 107.379 332.696 108.923 332.696C110.522 332.696 111.768 332.316 112.662 331.558C113.556 330.772 114.003 329.77 114.003 328.551C114.003 327.602 113.718 326.83 113.15 326.234C112.608 325.638 111.917 325.178 111.077 324.853C110.264 324.528 109.126 324.175 107.663 323.796C105.821 323.308 104.318 322.821 103.153 322.333C102.015 321.818 101.039 321.033 100.227 319.976C99.414 318.92 99.0076 317.511 99.0076 315.75C99.0076 314.124 99.414 312.702 100.227 311.483C101.039 310.264 102.177 309.329 103.64 308.679C105.103 308.029 106.797 307.703 108.72 307.703C111.456 307.703 113.691 308.394 115.425 309.776C117.186 311.131 118.162 313 118.351 315.384H113.231C113.15 314.355 112.662 313.474 111.768 312.743C110.874 312.011 109.695 311.645 108.232 311.645C106.905 311.645 105.821 311.984 104.981 312.661C104.142 313.339 103.722 314.314 103.722 315.587C103.722 316.454 103.979 317.172 104.494 317.741C105.036 318.283 105.713 318.716 106.526 319.041C107.338 319.367 108.449 319.719 109.858 320.098C111.727 320.613 113.244 321.128 114.409 321.642C115.601 322.157 116.604 322.956 117.417 324.04C118.256 325.096 118.676 326.519 118.676 328.307C118.676 329.743 118.283 331.097 117.498 332.371C116.739 333.644 115.615 334.673 114.125 335.459C112.662 336.218 110.928 336.597 108.923 336.597ZM149.237 308.069V336.312H144.604V323.959H131.315V336.312H126.683V308.069H131.315V320.179H144.604V308.069H149.237ZM170.757 336.597C168.13 336.597 165.705 335.987 163.483 334.768C161.289 333.522 159.541 331.802 158.241 329.607C156.968 327.386 156.331 324.893 156.331 322.13C156.331 319.367 156.968 316.888 158.241 314.693C159.541 312.499 161.289 310.792 163.483 309.573C165.705 308.327 168.13 307.703 170.757 307.703C173.412 307.703 175.837 308.327 178.032 309.573C180.253 310.792 182.001 312.499 183.274 314.693C184.547 316.888 185.184 319.367 185.184 322.13C185.184 324.893 184.547 327.386 183.274 329.607C182.001 331.802 180.253 333.522 178.032 334.768C175.837 335.987 173.412 336.597 170.757 336.597ZM170.757 332.574C172.627 332.574 174.293 332.154 175.756 331.314C177.219 330.447 178.357 329.228 179.17 327.657C180.009 326.058 180.429 324.216 180.429 322.13C180.429 320.044 180.009 318.215 179.17 316.644C178.357 315.072 177.219 313.867 175.756 313.027C174.293 312.187 172.627 311.767 170.757 311.767C168.888 311.767 167.222 312.187 165.759 313.027C164.296 313.867 163.145 315.072 162.305 316.644C161.492 318.215 161.086 320.044 161.086 322.13C161.086 324.216 161.492 326.058 162.305 327.657C163.145 329.228 164.296 330.447 165.759 331.314C167.222 332.154 168.888 332.574 170.757 332.574ZM212.032 316.481C212.032 317.917 211.694 319.272 211.017 320.545C210.339 321.818 209.256 322.861 207.766 323.674C206.275 324.46 204.365 324.853 202.036 324.853H196.915V336.312H192.283V308.069H202.036C204.203 308.069 206.032 308.449 207.522 309.207C209.039 309.939 210.163 310.941 210.895 312.214C211.653 313.488 212.032 314.91 212.032 316.481ZM202.036 321.073C203.797 321.073 205.111 320.68 205.977 319.895C206.844 319.082 207.278 317.944 207.278 316.481C207.278 313.393 205.53 311.849 202.036 311.849H196.915V321.073H202.036Z" fill="white"/>
<path d="M101.453 104H116.129L118.575 116.699M118.575 116.699L125.913 170.036L139.383 170.553M118.575 116.699L133.815 119.777M201.737 192.895L196.845 187.816H162.602H130.804H118.575L113.683 182.736V177.656L116.129 172.576L123.467 170.036L139.383 170.553M139.383 170.553L153.792 171.021M133.815 119.777L138.142 170.036M133.815 119.777L152.818 123.613M152.818 123.613L206.629 134.478L209.075 137.018L206.629 172.576L153.792 171.021M152.818 123.613L153.792 171.021" stroke="white" stroke-width="5.07973"/>
<path d="M172.387 170.036V129.398M189.508 131.938V170.036" stroke="white" stroke-width="5.07973"/>
<path d="M145.483 208.133C145.483 215.147 140.007 220.832 133.253 220.832C126.499 220.832 121.023 215.147 121.023 208.133C121.023 201.119 126.499 195.434 133.253 195.434C140.007 195.434 145.483 201.119 145.483 208.133ZM125.707 208.133C125.707 212.461 129.085 215.969 133.253 215.969C137.421 215.969 140.8 212.461 140.8 208.133C140.8 203.805 137.421 200.296 133.253 200.296C129.085 200.296 125.707 203.805 125.707 208.133Z" fill="white"/>
<path d="M194.401 208.133C194.401 215.147 188.925 220.832 182.171 220.832C175.417 220.832 169.941 215.147 169.941 208.133C169.941 201.119 175.417 195.434 182.171 195.434C188.925 195.434 194.401 201.119 194.401 208.133ZM174.624 208.133C174.624 212.461 178.003 215.969 182.171 215.969C186.339 215.969 189.718 212.461 189.718 208.133C189.718 203.805 186.339 200.296 182.171 200.296C178.003 200.296 174.624 203.805 174.624 208.133Z" fill="white"/>
</svg>
