<svg width="75" height="74" viewBox="0 0 75 74" fill="none" xmlns="http://www.w3.org/2000/svg">
<path d="M66.2778 37C66.2778 28.9833 63.4857 22.1829 57.9014 16.5986C52.3171 11.0144 45.5167 8.22222 37.5 8.22222V0C42.6389 0 47.4523 0.976389 51.9403 2.92917C56.4282 4.88194 60.3338 7.51991 63.6569 10.8431C66.9801 14.1662 69.6181 18.0718 71.5708 22.5597C73.5236 27.0477 74.5 31.8611 74.5 37H66.2778ZM49.8333 37C49.8333 33.5741 48.6343 30.662 46.2361 28.2639C43.838 25.8657 40.9259 24.6667 37.5 24.6667V16.4444C43.187 16.4444 48.0347 18.4486 52.0431 22.4569C56.0514 26.4653 58.0556 31.313 58.0556 37H49.8333ZM70.1833 74C61.6185 74 53.1565 72.1329 44.7972 68.3986C36.438 64.6644 28.8324 59.3713 21.9806 52.5194C15.1287 45.6676 9.83565 38.062 6.10139 29.7028C2.36713 21.3435 0.5 12.8815 0.5 4.31667C0.5 3.08333 0.911111 2.05556 1.73333 1.23333C2.55556 0.411111 3.58333 0 4.81667 0H21.4667C22.4259 0 23.2824 0.325463 24.0361 0.976389C24.7898 1.62731 25.2352 2.39815 25.3722 3.28889L28.0444 17.6778C28.1815 18.7741 28.1472 19.6991 27.9417 20.4528C27.7361 21.2065 27.3593 21.8574 26.8111 22.4056L16.8417 32.4778C18.212 35.013 19.8394 37.4625 21.7236 39.8264C23.6079 42.1903 25.6806 44.4685 27.9417 46.6611C30.0657 48.7852 32.2926 50.7551 34.6222 52.5708C36.9519 54.3866 39.4185 56.0481 42.0222 57.5556L51.6833 47.8944C52.3 47.2778 53.1051 46.8153 54.0986 46.5069C55.0921 46.1986 56.0685 46.113 57.0278 46.25L71.2111 49.1278C72.1704 49.4019 72.9583 49.8986 73.575 50.6181C74.1917 51.3375 74.5 52.1426 74.5 53.0333V69.6833C74.5 70.9167 74.0889 71.9445 73.2667 72.7667C72.4445 73.5889 71.4167 74 70.1833 74ZM12.9361 24.6667L19.7194 17.8833L17.9722 8.22222H8.825C9.16759 11.0315 9.64722 13.8065 10.2639 16.5472C10.8806 19.288 11.7713 21.9944 12.9361 24.6667ZM49.7306 61.4611C52.4028 62.6259 55.1264 63.5509 57.9014 64.2361C60.6764 64.9213 63.4685 65.3667 66.2778 65.5722V56.5278L56.6167 54.575L49.7306 61.4611Z" fill="#32B72A"/>
</svg>
