<svg width="23" height="20" viewBox="0 0 23 20" fill="none" xmlns="http://www.w3.org/2000/svg">
<path d="M22.2838 5.88733C22.398 5.32147 22.2845 4.72882 21.968 4.23904C21.6515 3.74926 21.1579 3.40222 20.595 3.27386L8.57807 0.561786C8.29907 0.498818 8.01152 0.491663 7.73184 0.540731C7.45217 0.589798 7.18585 0.694125 6.94809 0.847758C6.46791 1.15803 6.13321 1.6503 6.01761 2.21627C5.90201 2.78223 6.01499 3.37553 6.33169 3.86566C6.64838 4.35578 7.14286 4.70257 7.70634 4.82974L14.5945 6.3843L1.58649 14.7896C1.10638 15.0998 0.771716 15.592 0.656132 16.1579C0.540548 16.7238 0.653512 17.317 0.970169 17.8071C1.28683 18.2971 1.78124 18.6439 2.34464 18.771C2.90804 18.8982 3.49429 18.7953 3.97441 18.4851L16.9824 10.0798L15.5693 16.9983C15.512 17.2786 15.5103 17.5685 15.5642 17.8515C15.6181 18.1345 15.7265 18.405 15.8833 18.6477C16.0401 18.8904 16.2423 19.1005 16.4781 19.2659C16.714 19.4313 16.979 19.5488 17.258 19.6118C17.537 19.6748 17.8245 19.6819 18.1042 19.6329C18.3839 19.5838 18.6502 19.4795 18.888 19.3258C19.1257 19.1722 19.3303 18.9723 19.4899 18.7375C19.6496 18.5027 19.7612 18.2376 19.8185 17.9573L22.2838 5.88733Z" fill="white"/>
</svg>
